<svg version="1.1" viewBox="0.0 0.0 960.0 720.0" fill="none" stroke="none" stroke-linecap="square" stroke-miterlimit="10" xmlns:xlink="http://www.w3.org/1999/xlink" xmlns="http://www.w3.org/2000/svg"><clipPath id="p.0"><path d="m0 0l960.0 0l0 720.0l-960.0 0l0 -720.0z" clip-rule="nonzero"/></clipPath><g clip-path="url(#p.0)"><defs><radialGradient id="p.1" gradientUnits="userSpaceOnUse" gradientTransform="matrix(24.49489742783178 0.0 0.0 24.49489742783178 0.0 0.0)" spreadMethod="pad" cx="19.595917942265427" cy="14.696938456699069" fx="19.595917942265427" fy="14.696938456699069" r="24.494897842407227"><stop offset="0.0" stop-color="#c4302b"/><stop offset="1.0" stop-color="#000000"/></radialGradient></defs><path fill="url(#p.1)" d="m0 0l960.0 0l0 720.0l-960.0 0z" fill-rule="evenodd"/><path fill="#c4302b" d="m302.2047 359.9998l0 0c0 -113.44887 79.601654 -205.41733 177.79529 -205.41733l0 0c47.154236 0 92.37714 21.64212 125.720215 60.165344c33.34314 38.52321 52.075073 90.77191 52.075073 145.25198l0 0c0 113.44885 -79.601685 205.41733 -177.79529 205.41733l0 0c-98.193634 0 -177.79529 -91.968475 -177.79529 -205.41733z" fill-rule="evenodd"/><path stroke="#c4302b" stroke-width="12.0" stroke-linejoin="round" stroke-linecap="butt" d="m302.2047 359.9998l0 0c0 -113.44887 79.601654 -205.41733 177.79529 -205.41733l0 0c47.154236 0 92.37714 21.64212 125.720215 60.165344c33.34314 38.52321 52.075073 90.77191 52.075073 145.25198l0 0c0 113.44885 -79.601685 205.41733 -177.79529 205.41733l0 0c-98.193634 0 -177.79529 -91.968475 -177.79529 -205.41733z" fill-rule="evenodd"/><path fill="#ffffff" d="m435.98163 257.08646l145.03937 102.91339l-145.03937 102.91339z" fill-rule="evenodd"/><path stroke="#c4302b" stroke-width="1.0" stroke-linejoin="round" stroke-linecap="butt" d="m435.98163 257.08646l145.03937 102.91339l-145.03937 102.91339z" fill-rule="evenodd"/></g></svg>